<svg width="1251" height="177" viewBox="0 0 1251 177" fill="none" xmlns="http://www.w3.org/2000/svg">
<path d="M183.788 123.388V128.034C183.788 160.308 166.673 174 119.729 174H0.901855V2.84978H115.817C163.25 2.84978 180.609 14.3413 180.609 44.4148V47.3488C180.609 71.0653 170.829 82.3123 151.025 85.0018V86.4688C172.541 88.4248 183.788 99.1828 183.788 123.388ZM109.46 36.5908H43.2004V71.3098H110.927C131.465 71.3098 138.066 68.3758 138.066 54.9283V53.9503C138.066 40.5028 131.22 36.5908 109.46 36.5908ZM108.971 102.117H43.2004V140.259H109.215C133.91 140.259 141.245 136.347 141.245 121.677V120.454C141.245 105.051 134.154 102.117 108.971 102.117Z" fill="#181A17"/>
<path d="M412.476 2.84978V174H347.928L254.773 44.4148H253.062V174H211.497V2.84978H276.045L369.199 132.679H370.911V2.84978H412.476Z" fill="#181A17"/>
<path d="M486.595 121.677V174H444.297V2.84978H486.595V76.6888H488.062L584.395 2.84978H643.564L552.121 72.0433L646.009 174H588.796L518.625 98.2048H517.158L486.595 121.677Z" fill="#181A17"/>
<path d="M760.326 38.7913V174H717.784V38.7913H651.279V2.84978H827.075V38.7913H760.326Z" fill="#181A17"/>
<path d="M945.516 176.445H932.069C864.831 176.445 837.447 153.462 837.447 95.0263V81.8233C837.447 23.3878 864.831 0.404785 932.069 0.404785H945.516C1012.75 0.404785 1040.14 23.3878 1040.14 81.8233V95.0263C1040.14 153.462 1012.75 176.445 945.516 176.445ZM935.247 141.481H942.582C988.059 140.992 997.106 125.833 997.106 92.3368V84.7573C997.106 50.7718 988.059 35.3683 942.582 35.3683H935.247C889.281 35.3683 880.479 50.7718 880.479 84.7573V92.3368C880.479 125.833 889.281 141.481 935.247 141.481Z" fill="#181A17"/>
<path d="M1110.02 120.943V174H1067.72V2.84978H1182.88C1230.32 2.84978 1250.37 17.2753 1250.37 59.8183V65.1973C1250.37 103.584 1230.81 120.943 1182.88 120.943H1110.02ZM1175.79 36.3463H1110.02V87.4468H1176.04C1202.44 87.4468 1207.82 80.6008 1207.82 62.9968V60.7963C1207.82 42.7033 1201.22 36.3463 1175.79 36.3463Z" fill="#181A17"/>
</svg>
