<svg width="1386" height="190" viewBox="0 0 1386 190" fill="none" xmlns="http://www.w3.org/2000/svg">
<path d="M115.001 189.625H98.9888C28.1138 189.625 0.55127 164.95 0.55127 102.213V88.0375C0.55127 25.3 28.1138 0.625 98.9888 0.625H115.001C176.164 0.625 203.726 19.2625 211.601 64.4125H164.876C158.839 45.5125 144.926 38.1625 110.276 38.1625H103.714C55.9388 38.1625 46.7513 54.7 46.7513 91.1875V99.325C46.7513 135.288 55.9388 152.088 103.714 152.088H110.276C144.926 152.088 158.839 144.738 164.876 125.838H211.601C203.726 170.988 176.164 189.625 115.001 189.625Z" fill="#181A17"/>
<path d="M451.684 3.25V187H406.009V113.763H292.609V187H247.197V3.25H292.609V76.225H406.009V3.25H451.684Z" fill="#181A17"/>
<path d="M665.144 150.775V187H493.731V3.25H665.144V39.475H539.144V77.0125H665.144V112.975H539.144V150.775H665.144Z" fill="#181A17"/>
<path d="M749.534 122.163V187H704.121V3.25H830.121C881.308 3.25 900.208 16.375 900.208 50.7625V57.5875C900.208 85.15 889.708 96.9625 865.821 99.85V101.425C888.921 104.575 900.208 111.138 900.208 143.688V187H854.534V147.363C854.534 127.15 848.234 122.163 816.734 122.163H749.534ZM816.996 39.475H749.534V86.2H823.821C846.658 86.2 854.534 80.95 854.534 63.8875V62.575C854.534 44.2 846.921 39.475 816.996 39.475Z" fill="#181A17"/>
<path d="M1135.47 132.663V137.65C1135.47 172.3 1117.1 187 1066.7 187H939.12V3.25H1062.49C1113.42 3.25 1132.06 15.5875 1132.06 47.875V51.025C1132.06 76.4875 1121.56 88.5625 1100.3 91.45V93.025C1123.4 95.125 1135.47 106.675 1135.47 132.663ZM1055.67 39.475H984.533V76.75H1057.24C1079.29 76.75 1086.38 73.6 1086.38 59.1625V58.1125C1086.38 43.675 1079.03 39.475 1055.67 39.475ZM1055.15 109.825H984.533V150.775H1055.41C1081.92 150.775 1089.8 146.575 1089.8 130.825V129.513C1089.8 112.975 1082.18 109.825 1055.15 109.825Z" fill="#181A17"/>
<path d="M1284.39 189.625H1269.96C1197.77 189.625 1168.37 164.95 1168.37 102.213V88.0375C1168.37 25.3 1197.77 0.625 1269.96 0.625H1284.39C1356.58 0.625 1385.98 25.3 1385.98 88.0375V102.213C1385.98 164.95 1356.58 189.625 1284.39 189.625ZM1273.37 152.088H1281.24C1330.07 151.563 1339.78 135.288 1339.78 99.325V91.1875C1339.78 54.7 1330.07 38.1625 1281.24 38.1625H1273.37C1224.02 38.1625 1214.57 54.7 1214.57 91.1875V99.325C1214.57 135.288 1224.02 152.088 1273.37 152.088Z" fill="#181A17"/>
</svg>
