<svg width="1368" height="147" viewBox="0 0 1368 147" fill="none" xmlns="http://www.w3.org/2000/svg">
<path d="M35.5957 87.3001V144H0.563232V2.2501H132.796V30.1951H35.5957V59.3551H132.796V87.3001H35.5957Z" fill="#181A17"/>
<path d="M246.561 2.2501L313.386 144H273.899L259.319 112.005H179.736L164.954 144H126.479L193.101 2.2501H246.561ZM220.236 27.7651H218.819L192.696 84.0601H246.156L220.236 27.7651Z" fill="#181A17"/>
<path d="M402.277 146.025H389.722C337.072 146.025 320.062 129.825 320.062 84.4651V2.2501H355.905V82.6426C355.905 108.765 364.005 116.865 392.962 116.865H399.037C427.792 116.865 435.892 108.563 435.892 82.6426V2.2501H471.735V84.4651C471.735 129.825 454.522 146.025 402.277 146.025Z" fill="#181A17"/>
<path d="M530.178 93.9826V144H495.146V2.2501H592.346C631.833 2.2501 646.413 12.3751 646.413 38.9026V44.1676C646.413 65.4301 638.313 74.5426 619.886 76.7701V77.9851C637.706 80.4151 646.413 85.4776 646.413 110.588V144H611.178V113.423C611.178 97.8301 606.318 93.9826 582.018 93.9826H530.178ZM582.221 30.1951H530.178V66.2401H587.486C605.103 66.2401 611.178 62.1901 611.178 49.0276V48.0151C611.178 33.8401 605.306 30.1951 582.221 30.1951Z" fill="#181A17"/>
<path d="M779.706 2.2501L846.531 144H807.043L792.463 112.005H712.881L698.098 144H659.623L726.246 2.2501H779.706ZM753.381 27.7651H751.963L725.841 84.0601H779.301L753.381 27.7651Z" fill="#181A17"/>
<path d="M1028.63 2.2501V144H975.172L898.02 36.6751H896.602V144H862.177V2.2501H915.637L992.789 109.778H994.207V2.2501H1028.63Z" fill="#181A17"/>
<path d="M1139.63 146.025H1127.28C1072.6 146.025 1051.34 126.99 1051.34 78.5926V67.6576C1051.34 19.2601 1072.6 0.225098 1127.28 0.225098H1139.63C1186.81 0.225098 1208.08 14.6026 1214.15 49.4326H1178.11C1173.45 34.8526 1162.72 29.1826 1135.99 29.1826H1130.92C1094.07 29.1826 1086.98 41.9401 1086.98 70.0876V76.3651C1086.98 104.108 1094.07 117.068 1130.92 117.068H1135.99C1162.72 117.068 1173.45 111.398 1178.11 96.8176H1214.15C1208.08 131.648 1186.81 146.025 1139.63 146.025Z" fill="#181A17"/>
<path d="M1367.77 116.055V144H1235.54V2.2501H1367.77V30.1951H1270.57V59.1526H1367.77V86.8951H1270.57V116.055H1367.77Z" fill="#181A17"/>
</svg>
