<svg width="72" height="41" viewBox="0 0 72 41" fill="none" xmlns="http://www.w3.org/2000/svg">
<path id="Vector" d="M62.0562 20.2872C62.538 18.7739 62.789 17.1796 62.789 15.5447C62.789 11.4103 61.1742 7.51902 58.2498 4.58707C55.3255 1.65513 51.4308 0.0270225 47.2784 0H9.47196L0 20.3615H5.59768V20.3682L5.63161 20.3615H16.5284L7.08361 40.4527L32.4733 40.5L33.4572 38.3922C35.5877 39.7569 38.0846 40.4932 40.6426 40.4932H61.8934L71.25 20.2872H62.0562ZM8.49491 14.957L12.9391 5.4045H47.2444C52.8421 5.44504 57.361 9.97131 57.361 15.5515C57.361 21.1519 52.8014 25.6984 47.1698 25.6984H62.7687L58.4194 35.0887H40.6426C36.7072 35.0887 33.3758 32.1973 32.8465 28.3128L32.6972 27.2117L29.013 35.0887L15.6057 35.0617L17.3766 30.8867C20.0702 24.5432 26.2921 20.402 33.2129 20.3615L32.9415 25.2931L38.451 19.6589L45.8331 16.9837L39.8623 14.7543L39.7266 8.67423L34.977 14.957H8.49491Z" fill="#181A17"/>
</svg>
