<svg width="1501" height="195" viewBox="0 0 1501 195" fill="none" xmlns="http://www.w3.org/2000/svg">
<path d="M60.3667 125.51V192.2H0.25V3.2H167.048C234.81 3.2 259.829 16.7 259.829 52.07V59.09C259.829 87.44 245.929 99.59 214.307 102.56V104.18C244.887 107.42 259.829 114.17 259.829 147.65V192.2H199.365V151.43C199.365 130.64 191.025 125.51 149.326 125.51H60.3667ZM149.673 40.46H60.3667V88.52H158.708C188.94 88.52 199.365 83.12 199.365 65.57V64.22C199.365 45.32 189.288 40.46 149.673 40.46Z" fill="#181A17"/>
<path d="M527.83 154.94V192.2H300.915V3.2H527.83V40.46H361.032V79.07H527.83V116.06H361.032V154.94H527.83Z" fill="#181A17"/>
<path d="M714.256 194.9H693.059C599.235 194.9 562.748 169.52 562.748 104.99V90.41C562.748 25.88 599.235 0.5 693.059 0.5H714.256C795.222 0.5 831.709 19.67 842.134 66.11H780.28C772.288 46.67 753.87 39.11 708.001 39.11H699.314C636.069 39.11 623.907 56.12 623.907 93.65V102.02C623.907 139.01 636.069 156.29 699.314 156.29H708.001C753.87 156.29 772.288 148.73 780.28 129.29H842.134C831.709 175.73 795.222 194.9 714.256 194.9Z" fill="#181A17"/>
<path d="M938.947 3.2V192.2H878.83V3.2H938.947Z" fill="#181A17"/>
<path d="M1044.15 133.61V192.2H984.029V3.2H1147.7C1215.11 3.2 1243.61 19.13 1243.61 66.11V72.05C1243.61 114.44 1215.81 133.61 1147.7 133.61H1044.15ZM1137.62 40.19H1044.15V96.62H1137.97C1175.5 96.62 1183.14 89.06 1183.14 69.62V67.19C1183.14 47.21 1173.76 40.19 1137.62 40.19Z" fill="#181A17"/>
<path d="M1500.75 154.94V192.2H1273.84V3.2H1500.75V40.46H1333.95V79.07H1500.75V116.06H1333.95V154.94H1500.75Z" fill="#181A17"/>
</svg>
