<svg width="40" height="21" viewBox="0 0 40 21" fill="none" xmlns="http://www.w3.org/2000/svg">
<path id="Vector" d="M34.4592 10.1542C34.7234 9.40528 34.861 8.61622 34.861 7.8071C34.861 5.76089 33.9756 3.83505 32.3723 2.38399C30.7689 0.93292 28.6335 0.127143 26.3568 0.11377H5.62834L0.435059 10.191H3.50415V10.1943L3.52275 10.191H9.49726L4.31886 20.1345L18.2395 20.1579L18.7789 19.1147C19.9471 19.7901 21.3161 20.1545 22.7186 20.1545H34.37L39.5 10.1542H34.4592ZM5.09264 7.51622L7.52932 2.78855H26.3382C29.4073 2.80861 31.8849 5.04873 31.8849 7.81044C31.8849 10.5822 29.385 12.8323 26.2973 12.8323H34.8498L32.4653 17.4798H22.7186C20.5609 17.4798 18.7343 16.0488 18.4441 14.1263L18.3623 13.5813L16.3423 17.4798L8.99132 17.4664L9.96227 15.4001C11.4392 12.2606 14.8505 10.2111 18.645 10.191L18.4962 12.6317L21.517 9.84327L25.5644 8.51926L22.2907 7.41591L22.2163 4.40679L19.6123 7.51622H5.09264Z" fill="#1A1717"/>
</svg>
