<svg width="1272" height="160" viewBox="0 0 1272 160" fill="none" xmlns="http://www.w3.org/2000/svg">
<path d="M194.867 3.04961L122.487 157.05H72.7667L0.386719 3.04961H44.6067L98.0667 119.87H99.6067L153.507 3.04961H194.867Z" fill="#181A17"/>
<path d="M355.511 126.69V157.05H211.851V3.04961H355.511V33.4096H249.911V64.8696H355.511V95.0096H249.911V126.69H355.511Z" fill="#181A17"/>
<path d="M516.438 124.71V157.05H381.578V3.04961H419.638V124.71H516.438Z" fill="#181A17"/>
<path d="M622.026 159.25H609.926C549.426 159.25 524.786 138.57 524.786 85.9896V74.1096C524.786 21.5296 549.426 0.849609 609.926 0.849609H622.026C682.526 0.849609 707.166 21.5296 707.166 74.1096V85.9896C707.166 138.57 682.526 159.25 622.026 159.25ZM612.786 127.79H619.386C660.306 127.35 668.446 113.71 668.446 83.5696V76.7496C668.446 46.1696 660.306 32.3096 619.386 32.3096H612.786C571.426 32.3096 563.506 46.1696 563.506 76.7496V83.5696C563.506 113.71 571.426 127.79 612.786 127.79Z" fill="#181A17"/>
<path d="M818.008 159.25H804.368C747.168 159.25 728.688 141.65 728.688 92.3696V3.04961H767.628V90.3896C767.628 118.77 776.428 127.57 807.888 127.57H814.488C845.728 127.57 854.528 118.55 854.528 90.3896V3.04961H893.468V92.3696C893.468 141.65 874.768 159.25 818.008 159.25Z" fill="#181A17"/>
<path d="M956.962 102.71V157.05H918.902V3.04961H1024.5C1067.4 3.04961 1083.24 14.0496 1083.24 42.8696V48.5896C1083.24 71.6896 1074.44 81.5896 1054.42 84.0096V85.3296C1073.78 87.9696 1083.24 93.4696 1083.24 120.75V157.05H1044.96V123.83C1044.96 106.89 1039.68 102.71 1013.28 102.71H956.962ZM1013.5 33.4096H956.962V72.5696H1019.22C1038.36 72.5696 1044.96 68.1696 1044.96 53.8696V52.7696C1044.96 37.3696 1038.58 33.4096 1013.5 33.4096Z" fill="#181A17"/>
<path d="M1191.53 159.25H1185.15C1142.25 159.25 1108.81 149.57 1103.09 114.59H1143.57C1148.63 128.01 1164.47 129.99 1189.99 129.99C1219.25 129.99 1232.89 125.81 1232.89 111.95V110.19C1232.89 100.29 1227.83 95.6696 1208.69 94.7896L1163.37 93.2496C1123.55 92.1496 1107.49 78.9496 1107.49 51.4496V49.9096C1107.49 14.9296 1132.13 0.849609 1183.83 0.849609H1189.11C1230.47 0.849609 1263.25 12.2896 1268.97 47.0496H1228.49C1224.31 33.6296 1209.57 30.1096 1185.15 30.1096C1155.45 30.1096 1146.43 35.1696 1146.43 47.2696V47.9296C1146.43 57.8296 1151.27 62.4496 1170.63 63.1096L1215.95 64.8696C1255.77 66.4096 1271.61 78.9496 1271.61 106.23V108.21C1271.61 146.93 1242.57 159.25 1191.53 159.25Z" fill="#181A17"/>
</svg>
